<mxfile host="app.diagrams.net" agent="Mozilla/5.0 (X11; Linux x86_64) AppleWebKit/537.36 (KHTML, like Gecko) Chrome/132.0.0.0 Safari/537.36" version="28.0.6">
  <diagram name="Trang-1" id="cJodAscxPD1gbAq6NwEU">
    <mxGraphModel dx="2377" dy="1318" grid="1" gridSize="10" guides="1" tooltips="1" connect="1" arrows="1" fold="1" page="1" pageScale="1" pageWidth="827" pageHeight="1169" math="0" shadow="0">
      <root>
        <mxCell id="0" />
        <mxCell id="1" parent="0" />
        <mxCell id="k9oKzd9IFRifLT5gIqrd-101" style="rounded=0;orthogonalLoop=1;jettySize=auto;html=1;exitX=0.25;exitY=1;exitDx=0;exitDy=0;entryX=0.5;entryY=0;entryDx=0;entryDy=0;" edge="1" parent="1" source="k9oKzd9IFRifLT5gIqrd-1" target="k9oKzd9IFRifLT5gIqrd-2">
          <mxGeometry relative="1" as="geometry" />
        </mxCell>
        <mxCell id="k9oKzd9IFRifLT5gIqrd-102" style="rounded=0;orthogonalLoop=1;jettySize=auto;html=1;exitX=0.5;exitY=1;exitDx=0;exitDy=0;entryX=0.5;entryY=0;entryDx=0;entryDy=0;" edge="1" parent="1" source="k9oKzd9IFRifLT5gIqrd-1" target="k9oKzd9IFRifLT5gIqrd-3">
          <mxGeometry relative="1" as="geometry" />
        </mxCell>
        <mxCell id="k9oKzd9IFRifLT5gIqrd-103" style="rounded=0;orthogonalLoop=1;jettySize=auto;html=1;exitX=0.75;exitY=1;exitDx=0;exitDy=0;entryX=0.5;entryY=0;entryDx=0;entryDy=0;" edge="1" parent="1" source="k9oKzd9IFRifLT5gIqrd-1" target="k9oKzd9IFRifLT5gIqrd-9">
          <mxGeometry relative="1" as="geometry" />
        </mxCell>
        <mxCell id="k9oKzd9IFRifLT5gIqrd-104" style="rounded=0;orthogonalLoop=1;jettySize=auto;html=1;exitX=1;exitY=0.5;exitDx=0;exitDy=0;entryX=0;entryY=0.5;entryDx=0;entryDy=0;" edge="1" parent="1" source="k9oKzd9IFRifLT5gIqrd-1" target="k9oKzd9IFRifLT5gIqrd-14">
          <mxGeometry relative="1" as="geometry" />
        </mxCell>
        <mxCell id="k9oKzd9IFRifLT5gIqrd-105" style="rounded=0;orthogonalLoop=1;jettySize=auto;html=1;exitX=1;exitY=0.5;exitDx=0;exitDy=0;entryX=0;entryY=0.5;entryDx=0;entryDy=0;" edge="1" parent="1" source="k9oKzd9IFRifLT5gIqrd-1" target="k9oKzd9IFRifLT5gIqrd-4">
          <mxGeometry relative="1" as="geometry" />
        </mxCell>
        <mxCell id="k9oKzd9IFRifLT5gIqrd-106" style="rounded=0;orthogonalLoop=1;jettySize=auto;html=1;exitX=1;exitY=0.5;exitDx=0;exitDy=0;entryX=0;entryY=0.5;entryDx=0;entryDy=0;" edge="1" parent="1" source="k9oKzd9IFRifLT5gIqrd-1" target="k9oKzd9IFRifLT5gIqrd-5">
          <mxGeometry relative="1" as="geometry" />
        </mxCell>
        <mxCell id="k9oKzd9IFRifLT5gIqrd-107" style="rounded=0;orthogonalLoop=1;jettySize=auto;html=1;exitX=0;exitY=0;exitDx=0;exitDy=0;entryX=0.5;entryY=1;entryDx=0;entryDy=0;" edge="1" parent="1" source="k9oKzd9IFRifLT5gIqrd-1" target="k9oKzd9IFRifLT5gIqrd-7">
          <mxGeometry relative="1" as="geometry" />
        </mxCell>
        <mxCell id="k9oKzd9IFRifLT5gIqrd-109" style="rounded=0;orthogonalLoop=1;jettySize=auto;html=1;exitX=0.5;exitY=0;exitDx=0;exitDy=0;entryX=0.5;entryY=1;entryDx=0;entryDy=0;" edge="1" parent="1" source="k9oKzd9IFRifLT5gIqrd-1" target="k9oKzd9IFRifLT5gIqrd-13">
          <mxGeometry relative="1" as="geometry" />
        </mxCell>
        <mxCell id="k9oKzd9IFRifLT5gIqrd-110" style="rounded=0;orthogonalLoop=1;jettySize=auto;html=1;exitX=0.75;exitY=0;exitDx=0;exitDy=0;entryX=0.5;entryY=1;entryDx=0;entryDy=0;" edge="1" parent="1" source="k9oKzd9IFRifLT5gIqrd-1" target="k9oKzd9IFRifLT5gIqrd-6">
          <mxGeometry relative="1" as="geometry" />
        </mxCell>
        <mxCell id="k9oKzd9IFRifLT5gIqrd-111" style="rounded=0;orthogonalLoop=1;jettySize=auto;html=1;exitX=1;exitY=0;exitDx=0;exitDy=0;" edge="1" parent="1" source="k9oKzd9IFRifLT5gIqrd-1" target="k9oKzd9IFRifLT5gIqrd-8">
          <mxGeometry relative="1" as="geometry" />
        </mxCell>
        <mxCell id="k9oKzd9IFRifLT5gIqrd-113" style="edgeStyle=orthogonalEdgeStyle;rounded=0;orthogonalLoop=1;jettySize=auto;html=1;exitX=0;exitY=0.5;exitDx=0;exitDy=0;entryX=1;entryY=0.5;entryDx=0;entryDy=0;" edge="1" parent="1" source="k9oKzd9IFRifLT5gIqrd-1" target="k9oKzd9IFRifLT5gIqrd-112">
          <mxGeometry relative="1" as="geometry" />
        </mxCell>
        <mxCell id="k9oKzd9IFRifLT5gIqrd-1" value="GreenEarthNet" style="whiteSpace=wrap;strokeWidth=2;fontSize=24;fontStyle=1;fillColor=#d5e8d4;strokeColor=#82b366;" vertex="1" parent="1">
          <mxGeometry x="721.25" y="320" width="259" height="114" as="geometry" />
        </mxCell>
        <mxCell id="k9oKzd9IFRifLT5gIqrd-2" value="earthnetmodelspytorch/" style="whiteSpace=wrap;strokeWidth=2;fontSize=16;fillColor=#b0e3e6;strokeColor=#0e8088;" vertex="1" parent="1">
          <mxGeometry x="379" y="530" width="227" height="54" as="geometry" />
        </mxCell>
        <mxCell id="k9oKzd9IFRifLT5gIqrd-3" value="earthnetminicuber/" style="whiteSpace=wrap;strokeWidth=2;fontSize=16;fillColor=#b0e3e6;strokeColor=#0e8088;" vertex="1" parent="1">
          <mxGeometry x="754" y="530" width="193" height="54" as="geometry" />
        </mxCell>
        <mxCell id="k9oKzd9IFRifLT5gIqrd-4" value="cloudmask/" style="whiteSpace=wrap;strokeWidth=2;fontSize=16;fillColor=#bac8d3;strokeColor=#23445d;" vertex="1" parent="1">
          <mxGeometry x="1370.5" y="350" width="141" height="54" as="geometry" />
        </mxCell>
        <mxCell id="k9oKzd9IFRifLT5gIqrd-5" value="model_pixelwise/" style="whiteSpace=wrap;strokeWidth=2;fontSize=16;fillColor=#bac8d3;strokeColor=#23445d;" vertex="1" parent="1">
          <mxGeometry x="1350" y="450" width="182" height="54" as="geometry" />
        </mxCell>
        <mxCell id="k9oKzd9IFRifLT5gIqrd-6" value="visualization/" style="whiteSpace=wrap;strokeWidth=2;fontSize=16;fillColor=#dae8fc;strokeColor=#6c8ebf;" vertex="1" parent="1">
          <mxGeometry x="1092" y="120" width="142" height="54" as="geometry" />
        </mxCell>
        <mxCell id="k9oKzd9IFRifLT5gIqrd-7" value="evaluation/" style="whiteSpace=wrap;strokeWidth=2;fontSize=16;fillColor=#ffe6cc;strokeColor=#d79b00;" vertex="1" parent="1">
          <mxGeometry x="121.5" y="120" width="137" height="54" as="geometry" />
        </mxCell>
        <mxCell id="k9oKzd9IFRifLT5gIqrd-8" value="results/" style="whiteSpace=wrap;strokeWidth=2;fontSize=16;fillColor=#e51400;fontColor=#ffffff;strokeColor=#B20000;" vertex="1" parent="1">
          <mxGeometry x="1405" y="120" width="112" height="54" as="geometry" />
        </mxCell>
        <mxCell id="k9oKzd9IFRifLT5gIqrd-9" value="model_configs/" style="whiteSpace=wrap;strokeWidth=2;fontSize=16;fillColor=#b0e3e6;strokeColor=#0e8088;" vertex="1" parent="1">
          <mxGeometry x="1134.75" y="530" width="168" height="54" as="geometry" />
        </mxCell>
        <mxCell id="k9oKzd9IFRifLT5gIqrd-12" value="experiments/" style="whiteSpace=wrap;strokeWidth=2;fontSize=16;fillColor=#f8cecc;strokeColor=#b85450;" vertex="1" parent="1">
          <mxGeometry x="477.5" y="120" width="140" height="54" as="geometry" />
        </mxCell>
        <mxCell id="k9oKzd9IFRifLT5gIqrd-13" value="predictions/" style="whiteSpace=wrap;strokeWidth=2;fontSize=16;fillColor=#e1d5e7;strokeColor=#9673a6;" vertex="1" parent="1">
          <mxGeometry x="785.75" y="120" width="130" height="54" as="geometry" />
        </mxCell>
        <mxCell id="k9oKzd9IFRifLT5gIqrd-14" value="histograms/" style="whiteSpace=wrap;strokeWidth=2;fontSize=16;fillColor=#bac8d3;strokeColor=#23445d;" vertex="1" parent="1">
          <mxGeometry x="1369.5" y="250" width="143" height="54" as="geometry" />
        </mxCell>
        <mxCell id="k9oKzd9IFRifLT5gIqrd-16" value="earthnet_models_pytorch/" style="whiteSpace=wrap;strokeWidth=2;fontSize=16;fillColor=#b1ddf0;strokeColor=#10739e;" vertex="1" parent="1">
          <mxGeometry x="360" y="634" width="245" height="54" as="geometry" />
        </mxCell>
        <mxCell id="k9oKzd9IFRifLT5gIqrd-17" value="scripts/" style="whiteSpace=wrap;strokeWidth=2;fontSize=16;" vertex="1" parent="1">
          <mxGeometry x="52" y="634" width="111" height="54" as="geometry" />
        </mxCell>
        <mxCell id="k9oKzd9IFRifLT5gIqrd-20" value="configs/" style="whiteSpace=wrap;strokeWidth=2;fontSize=16;" vertex="1" parent="1">
          <mxGeometry x="202" y="634" width="115" height="54" as="geometry" />
        </mxCell>
        <mxCell id="k9oKzd9IFRifLT5gIqrd-21" value="data/" style="whiteSpace=wrap;strokeWidth=2;fontSize=16;" vertex="1" parent="1">
          <mxGeometry x="210" y="738" width="96" height="54" as="geometry" />
        </mxCell>
        <mxCell id="k9oKzd9IFRifLT5gIqrd-22" value="model/" style="whiteSpace=wrap;strokeWidth=2;fontSize=16;" vertex="1" parent="1">
          <mxGeometry x="317" y="738" width="108" height="54" as="geometry" />
        </mxCell>
        <mxCell id="k9oKzd9IFRifLT5gIqrd-23" value="task/" style="whiteSpace=wrap;strokeWidth=2;fontSize=16;" vertex="1" parent="1">
          <mxGeometry x="436.5" y="738" width="94" height="54" as="geometry" />
        </mxCell>
        <mxCell id="k9oKzd9IFRifLT5gIqrd-24" value="metric/" style="whiteSpace=wrap;strokeWidth=2;fontSize=16;" vertex="1" parent="1">
          <mxGeometry x="540" y="738" width="108" height="54" as="geometry" />
        </mxCell>
        <mxCell id="k9oKzd9IFRifLT5gIqrd-25" value="utils/" style="whiteSpace=wrap;strokeWidth=2;fontSize=16;" vertex="1" parent="1">
          <mxGeometry x="660" y="738" width="93" height="54" as="geometry" />
        </mxCell>
        <mxCell id="k9oKzd9IFRifLT5gIqrd-26" value="earthnet_minicuber/" style="whiteSpace=wrap;strokeWidth=2;fontSize=16;fillColor=#b1ddf0;strokeColor=#10739e;" vertex="1" parent="1">
          <mxGeometry x="750" y="634" width="201" height="54" as="geometry" />
        </mxCell>
        <mxCell id="k9oKzd9IFRifLT5gIqrd-27" value="providers/" style="whiteSpace=wrap;strokeWidth=2;fontSize=16;" vertex="1" parent="1">
          <mxGeometry x="790" y="738" width="122" height="54" as="geometry" />
        </mxCell>
        <mxCell id="k9oKzd9IFRifLT5gIqrd-29" value="dataset_eval/" style="whiteSpace=wrap;strokeWidth=2;fontSize=16;" vertex="1" parent="1">
          <mxGeometry x="30" y="20" width="155" height="54" as="geometry" />
        </mxCell>
        <mxCell id="k9oKzd9IFRifLT5gIqrd-30" value="results_eval/" style="whiteSpace=wrap;strokeWidth=2;fontSize=16;" vertex="1" parent="1">
          <mxGeometry x="200" y="20" width="150" height="54" as="geometry" />
        </mxCell>
        <mxCell id="k9oKzd9IFRifLT5gIqrd-31" value="visualization/" style="whiteSpace=wrap;strokeWidth=2;fontSize=16;" vertex="1" parent="1">
          <mxGeometry x="1340" y="20" width="106" height="54" as="geometry" />
        </mxCell>
        <mxCell id="k9oKzd9IFRifLT5gIqrd-32" value="metrics/" style="whiteSpace=wrap;strokeWidth=2;fontSize=16;" vertex="1" parent="1">
          <mxGeometry x="1480" y="20" width="101" height="54" as="geometry" />
        </mxCell>
        <mxCell id="k9oKzd9IFRifLT5gIqrd-33" value="contextformer/" style="whiteSpace=wrap;strokeWidth=2;fontSize=16;fillColor=#b1ddf0;strokeColor=#10739e;" vertex="1" parent="1">
          <mxGeometry x="1066.75" y="634" width="126" height="54" as="geometry" />
        </mxCell>
        <mxCell id="k9oKzd9IFRifLT5gIqrd-34" value="others/" style="whiteSpace=wrap;strokeWidth=2;fontSize=16;" vertex="1" parent="1">
          <mxGeometry x="1246.75" y="634" width="124" height="54" as="geometry" />
        </mxCell>
        <mxCell id="k9oKzd9IFRifLT5gIqrd-49" value="en24vn_ndvi_rice/" style="whiteSpace=wrap;strokeWidth=2;fontSize=16;" vertex="1" parent="1">
          <mxGeometry x="557.5" y="20" width="170" height="54" as="geometry" />
        </mxCell>
        <mxCell id="k9oKzd9IFRifLT5gIqrd-64" value="" style="curved=1;startArrow=none;endArrow=block;exitX=0.456;exitY=1.037;entryX=0.5;entryY=0;rounded=0;exitDx=0;exitDy=0;exitPerimeter=0;fontSize=16;" edge="1" parent="1" source="k9oKzd9IFRifLT5gIqrd-2" target="k9oKzd9IFRifLT5gIqrd-16">
          <mxGeometry relative="1" as="geometry">
            <Array as="points" />
          </mxGeometry>
        </mxCell>
        <mxCell id="k9oKzd9IFRifLT5gIqrd-65" value="" style="curved=1;startArrow=none;endArrow=block;exitX=0;exitY=0.5;entryX=0.5;entryY=0;rounded=0;exitDx=0;exitDy=0;entryDx=0;entryDy=0;fontSize=16;" edge="1" parent="1" source="k9oKzd9IFRifLT5gIqrd-2" target="k9oKzd9IFRifLT5gIqrd-17">
          <mxGeometry relative="1" as="geometry">
            <Array as="points" />
          </mxGeometry>
        </mxCell>
        <mxCell id="k9oKzd9IFRifLT5gIqrd-68" value="" style="curved=1;startArrow=none;endArrow=block;exitX=0;exitY=1;entryX=0.5;entryY=0;rounded=0;exitDx=0;exitDy=0;entryDx=0;entryDy=0;fontSize=16;" edge="1" parent="1" source="k9oKzd9IFRifLT5gIqrd-2" target="k9oKzd9IFRifLT5gIqrd-20">
          <mxGeometry relative="1" as="geometry">
            <Array as="points" />
          </mxGeometry>
        </mxCell>
        <mxCell id="k9oKzd9IFRifLT5gIqrd-69" value="" style="curved=1;startArrow=none;endArrow=block;exitX=0;exitY=1;entryX=0.5;entryY=0;rounded=0;exitDx=0;exitDy=0;fontSize=16;" edge="1" parent="1" source="k9oKzd9IFRifLT5gIqrd-16" target="k9oKzd9IFRifLT5gIqrd-21">
          <mxGeometry relative="1" as="geometry">
            <Array as="points" />
          </mxGeometry>
        </mxCell>
        <mxCell id="k9oKzd9IFRifLT5gIqrd-70" value="" style="curved=1;startArrow=none;endArrow=block;exitX=0.25;exitY=1;entryX=0.5;entryY=0;rounded=0;exitDx=0;exitDy=0;fontSize=16;" edge="1" parent="1" source="k9oKzd9IFRifLT5gIqrd-16" target="k9oKzd9IFRifLT5gIqrd-22">
          <mxGeometry relative="1" as="geometry">
            <Array as="points" />
          </mxGeometry>
        </mxCell>
        <mxCell id="k9oKzd9IFRifLT5gIqrd-71" value="" style="curved=1;startArrow=none;endArrow=block;entryX=0.49;entryY=0;rounded=0;exitX=0.5;exitY=1;exitDx=0;exitDy=0;fontSize=16;" edge="1" parent="1" source="k9oKzd9IFRifLT5gIqrd-16" target="k9oKzd9IFRifLT5gIqrd-23">
          <mxGeometry relative="1" as="geometry">
            <Array as="points" />
          </mxGeometry>
        </mxCell>
        <mxCell id="k9oKzd9IFRifLT5gIqrd-72" value="" style="curved=1;startArrow=none;endArrow=block;entryX=0.5;entryY=0;rounded=0;exitX=0.75;exitY=1;exitDx=0;exitDy=0;fontSize=16;" edge="1" parent="1" source="k9oKzd9IFRifLT5gIqrd-16" target="k9oKzd9IFRifLT5gIqrd-24">
          <mxGeometry relative="1" as="geometry">
            <Array as="points" />
          </mxGeometry>
        </mxCell>
        <mxCell id="k9oKzd9IFRifLT5gIqrd-73" value="" style="curved=1;startArrow=none;endArrow=block;exitX=1;exitY=1;entryX=0.49;entryY=0;rounded=0;exitDx=0;exitDy=0;fontSize=16;" edge="1" parent="1" source="k9oKzd9IFRifLT5gIqrd-16" target="k9oKzd9IFRifLT5gIqrd-25">
          <mxGeometry relative="1" as="geometry">
            <Array as="points" />
          </mxGeometry>
        </mxCell>
        <mxCell id="k9oKzd9IFRifLT5gIqrd-74" value="" style="curved=1;startArrow=none;endArrow=block;exitX=0.5;exitY=1;entryX=0.5;entryY=0;rounded=0;exitDx=0;exitDy=0;fontSize=16;" edge="1" parent="1" source="k9oKzd9IFRifLT5gIqrd-3" target="k9oKzd9IFRifLT5gIqrd-26">
          <mxGeometry relative="1" as="geometry">
            <Array as="points" />
          </mxGeometry>
        </mxCell>
        <mxCell id="k9oKzd9IFRifLT5gIqrd-75" value="" style="curved=1;startArrow=none;endArrow=block;exitX=0.5;exitY=1;entryX=0.5;entryY=0;rounded=0;fontSize=16;" edge="1" parent="1" source="k9oKzd9IFRifLT5gIqrd-26" target="k9oKzd9IFRifLT5gIqrd-27">
          <mxGeometry relative="1" as="geometry">
            <Array as="points" />
          </mxGeometry>
        </mxCell>
        <mxCell id="k9oKzd9IFRifLT5gIqrd-77" value="" style="curved=1;startArrow=none;endArrow=block;entryX=0.5;entryY=1;rounded=0;fontSize=16;entryDx=0;entryDy=0;" edge="1" parent="1" target="k9oKzd9IFRifLT5gIqrd-29">
          <mxGeometry relative="1" as="geometry">
            <Array as="points" />
            <mxPoint x="160" y="120" as="sourcePoint" />
          </mxGeometry>
        </mxCell>
        <mxCell id="k9oKzd9IFRifLT5gIqrd-78" value="" style="curved=1;startArrow=none;endArrow=block;exitX=0.75;exitY=0;entryX=0.5;entryY=1;rounded=0;exitDx=0;exitDy=0;fontSize=16;entryDx=0;entryDy=0;" edge="1" parent="1" source="k9oKzd9IFRifLT5gIqrd-7" target="k9oKzd9IFRifLT5gIqrd-30">
          <mxGeometry relative="1" as="geometry">
            <Array as="points" />
          </mxGeometry>
        </mxCell>
        <mxCell id="k9oKzd9IFRifLT5gIqrd-79" value="" style="curved=1;startArrow=none;endArrow=block;entryX=0.5;entryY=1;rounded=0;fontSize=16;entryDx=0;entryDy=0;" edge="1" parent="1" source="k9oKzd9IFRifLT5gIqrd-8" target="k9oKzd9IFRifLT5gIqrd-31">
          <mxGeometry relative="1" as="geometry">
            <Array as="points" />
          </mxGeometry>
        </mxCell>
        <mxCell id="k9oKzd9IFRifLT5gIqrd-80" value="" style="curved=1;startArrow=none;endArrow=block;entryX=0.5;entryY=1;rounded=0;fontSize=16;entryDx=0;entryDy=0;" edge="1" parent="1" source="k9oKzd9IFRifLT5gIqrd-8" target="k9oKzd9IFRifLT5gIqrd-32">
          <mxGeometry relative="1" as="geometry">
            <Array as="points" />
          </mxGeometry>
        </mxCell>
        <mxCell id="k9oKzd9IFRifLT5gIqrd-81" value="" style="curved=1;startArrow=none;endArrow=block;exitX=0.25;exitY=1;entryX=0.5;entryY=0;rounded=0;exitDx=0;exitDy=0;fontSize=16;" edge="1" parent="1" source="k9oKzd9IFRifLT5gIqrd-9" target="k9oKzd9IFRifLT5gIqrd-33">
          <mxGeometry relative="1" as="geometry">
            <Array as="points" />
          </mxGeometry>
        </mxCell>
        <mxCell id="k9oKzd9IFRifLT5gIqrd-82" value="" style="curved=1;startArrow=none;endArrow=block;exitX=0.75;exitY=1;entryX=0.5;entryY=0;rounded=0;exitDx=0;exitDy=0;fontSize=16;" edge="1" parent="1" source="k9oKzd9IFRifLT5gIqrd-9" target="k9oKzd9IFRifLT5gIqrd-34">
          <mxGeometry relative="1" as="geometry">
            <Array as="points" />
          </mxGeometry>
        </mxCell>
        <mxCell id="k9oKzd9IFRifLT5gIqrd-96" value="" style="curved=1;startArrow=none;endArrow=block;entryX=0.5;entryY=1;rounded=0;entryDx=0;entryDy=0;fontSize=16;" edge="1" parent="1" source="k9oKzd9IFRifLT5gIqrd-12" target="k9oKzd9IFRifLT5gIqrd-98">
          <mxGeometry relative="1" as="geometry">
            <Array as="points" />
            <mxPoint x="456" y="224" as="targetPoint" />
          </mxGeometry>
        </mxCell>
        <mxCell id="k9oKzd9IFRifLT5gIqrd-97" value="" style="curved=1;startArrow=none;endArrow=block;exitX=0.75;exitY=0;entryX=0.5;entryY=1;rounded=0;fontSize=16;exitDx=0;exitDy=0;entryDx=0;entryDy=0;" edge="1" parent="1" source="k9oKzd9IFRifLT5gIqrd-12" target="k9oKzd9IFRifLT5gIqrd-49">
          <mxGeometry relative="1" as="geometry">
            <Array as="points" />
          </mxGeometry>
        </mxCell>
        <mxCell id="k9oKzd9IFRifLT5gIqrd-98" value="en24vn_ndvi_forest/" style="whiteSpace=wrap;strokeWidth=2;fontSize=16;" vertex="1" parent="1">
          <mxGeometry x="377.5" y="20" width="170" height="54" as="geometry" />
        </mxCell>
        <mxCell id="k9oKzd9IFRifLT5gIqrd-108" style="rounded=0;orthogonalLoop=1;jettySize=auto;html=1;exitX=0.25;exitY=0;exitDx=0;exitDy=0;entryX=0.5;entryY=1;entryDx=0;entryDy=0;" edge="1" parent="1" source="k9oKzd9IFRifLT5gIqrd-1" target="k9oKzd9IFRifLT5gIqrd-12">
          <mxGeometry relative="1" as="geometry">
            <mxPoint x="1011" y="386" as="sourcePoint" />
            <mxPoint x="350" y="240" as="targetPoint" />
          </mxGeometry>
        </mxCell>
        <mxCell id="k9oKzd9IFRifLT5gIqrd-112" value="process_dataset/" style="whiteSpace=wrap;strokeWidth=2;fontSize=16;fillColor=#a0522d;strokeColor=#6D1F00;fontColor=#ffffff;" vertex="1" parent="1">
          <mxGeometry x="217" y="350" width="143" height="54" as="geometry" />
        </mxCell>
      </root>
    </mxGraphModel>
  </diagram>
</mxfile>
